<?xml version="1.0" standalone="no"?>
<!DOCTYPE svg PUBLIC "-//W3C//DTD SVG 20010904//EN"
 "http://www.w3.org/TR/2001/REC-SVG-20010904/DTD/svg10.dtd">
<svg version="1.0" xmlns="http://www.w3.org/2000/svg"
 width="185.000000pt" height="184.000000pt" viewBox="0 0 185.000000 184.000000"
 preserveAspectRatio="xMidYMid meet">

<g transform="translate(0.000000,184.000000) scale(0.100000,-0.100000)"
fill="#000000" stroke="none">
<path d="M781 1725 c-369 -70 -648 -380 -668 -741 -5 -94 -4 -103 16 -123 26
-26 71 -27 101 -3 18 15 24 33 31 105 33 331 264 572 589 617 140 19 298 -15
426 -91 58 -35 194 -160 194 -179 0 -6 -30 -10 -78 -10 -69 0 -81 -3 -100 -23
-28 -30 -29 -80 -2 -107 19 -19 33 -20 220 -20 187 0 201 1 220 20 19 19 20
33 20 210 0 182 -1 190 -22 210 -27 25 -69 26 -99 1 -21 -17 -25 -30 -29 -105
l-5 -86 -35 44 c-97 119 -266 228 -417 267 -102 26 -265 33 -362 14z"/>
<path d="M1626 967 c-19 -19 -24 -37 -29 -102 -31 -439 -480 -731 -893 -581
-98 36 -171 84 -253 166 l-75 75 84 3 c70 2 89 7 107 24 29 27 31 80 3 108
-19 19 -33 20 -220 20 -187 0 -201 -1 -220 -20 -11 -11 -20 -32 -20 -48 -1
-70 -1 -300 -1 -324 2 -58 75 -88 122 -49 21 17 24 29 27 103 l4 83 91 -90
c122 -120 223 -177 388 -222 98 -26 290 -24 397 5 349 94 611 417 612 755 0
64 -3 80 -20 97 -27 27 -75 26 -104 -3z"/>
</g>
</svg>
