<?xml version="1.0" standalone="no"?>
<!DOCTYPE svg PUBLIC "-//W3C//DTD SVG 20010904//EN"
 "http://www.w3.org/TR/2001/REC-SVG-20010904/DTD/svg10.dtd">
<svg version="1.0" xmlns="http://www.w3.org/2000/svg"
 width="860.000000pt" height="900.000000pt" viewBox="0 0 860.000000 900.000000"
 preserveAspectRatio="xMidYMid meet">

<g transform="translate(0.000000,900.000000) scale(0.100000,-0.100000)"
fill="#000000" stroke="none">
<path d="M4205 8587 c-22 -8 -56 -22 -75 -31 -19 -10 -317 -302 -663 -649
-458 -462 -633 -644 -649 -677 -32 -68 -36 -188 -8 -263 27 -73 100 -149 175
-183 44 -21 71 -26 135 -26 140 0 147 5 515 373 176 175 324 319 328 319 4 0
6 -566 5 -1257 l-3 -1258 -1257 -3 c-692 -1 -1258 1 -1258 5 0 4 144 152 319
328 366 367 375 378 375 515 0 96 -32 170 -103 239 -69 68 -141 94 -242 89
-133 -6 -116 9 -814 -686 -711 -707 -680 -669 -680 -822 0 -155 -32 -117 686
-829 423 -420 646 -634 678 -651 40 -22 59 -25 141 -25 112 0 167 21 238 93
64 64 94 135 95 230 1 139 -6 149 -374 517 -175 176 -319 324 -319 328 0 4
566 6 1258 5 l1257 -3 3 -1257 c1 -692 -1 -1258 -5 -1258 -4 0 -152 144 -328
319 -367 366 -378 375 -515 375 -96 0 -170 -32 -239 -103 -89 -91 -115 -224
-70 -348 20 -55 55 -92 658 -696 720 -722 684 -692 831 -692 157 0 119 -31
828 683 438 442 631 642 650 677 24 44 27 61 27 145 0 81 -4 103 -24 145 -81
163 -275 235 -436 161 -52 -23 -103 -70 -380 -347 -176 -175 -324 -319 -328
-319 -4 0 -6 566 -5 1258 l3 1257 1258 3 c691 1 1257 -1 1257 -5 0 -4 -144
-152 -319 -328 -366 -367 -375 -378 -375 -515 0 -60 6 -87 26 -132 74 -162
257 -239 423 -178 58 21 87 49 702 663 723 721 687 679 688 827 0 157 32 118
-684 831 -489 487 -639 631 -677 649 -73 34 -190 39 -267 10 -74 -28 -149
-100 -184 -177 -22 -47 -27 -72 -26 -134 1 -138 8 -148 374 -514 175 -176 319
-324 319 -328 0 -4 -566 -6 -1257 -5 l-1258 3 -3 1258 c-1 691 1 1257 5 1257
4 0 152 -144 328 -319 277 -277 328 -324 380 -347 128 -59 278 -28 377 77 65
69 91 141 86 240 -6 133 8 116 -683 813 -555 559 -627 628 -680 652 -70 32
-177 41 -240 21z"/>
</g>
</svg>
